<svg width="35" height="13" viewBox="0 0 35 13" fill="none" xmlns="http://www.w3.org/2000/svg">
<path d="M22.4089 0.97403C19.9769 0.97403 17.8035 2.27086 17.8035 4.66685C17.8035 7.41459 21.658 7.60438 21.658 8.98477C21.658 9.566 21.0106 10.0863 19.9048 10.0863C18.3354 10.0863 17.1625 9.35929 17.1625 9.35929L16.6606 11.7771C16.6606 11.7771 18.0118 12.3912 19.8057 12.3912C22.4647 12.3912 24.5569 11.0307 24.5569 8.59373C24.5569 5.69024 20.6864 5.5061 20.6864 4.22486C20.6864 3.76956 21.2179 3.27068 22.3205 3.27068C23.5646 3.27068 24.5797 3.79941 24.5797 3.79941L25.0709 1.4642C25.0709 1.4642 23.9664 0.97403 22.4089 0.97403ZM0.158498 1.15027L0.0996094 1.50276C0.0996094 1.50276 1.12275 1.6954 2.04426 2.07967C3.23077 2.52032 3.31529 2.77685 3.51512 3.5736L5.69265 12.2094H8.61163L13.1085 1.15027H10.1963L7.30672 8.66946L6.12762 2.29584C6.01948 1.56639 5.47175 1.15027 4.80129 1.15027H0.158498ZM14.2796 1.15027L11.995 12.2094H14.7721L17.0487 1.15027H14.2796ZM29.7685 1.15027C29.0989 1.15027 28.7441 1.51912 28.4837 2.16366L24.4151 12.2094H27.3274L27.8908 10.5351H31.4388L31.7814 12.2094H34.3511L32.1093 1.15027H29.7685ZM30.1473 4.13812L31.0105 8.28807H28.6978L30.1473 4.13812Z" fill="#1434CB"/>
</svg>
